<svg xmlns="http://www.w3.org/2000/svg" xmlns:xlink="http://www.w3.org/1999/xlink" zoomAndPan="magnify" preserveAspectRatio="xMidYMid meet" version="1.0" viewBox="38.98 88.75 290.13 212.19"><defs><g/><clipPath id="bcbc9566f9"><path d="M 38.835938 88.75 L 314.53125 88.75 L 314.53125 204.25 L 38.835938 204.25 Z M 38.835938 88.75 " clip-rule="nonzero"/></clipPath></defs><g clip-path="url(#bcbc9566f9)"><path fill="#00666c" d="M 314.691406 204.261719 L 313.144531 202.289062 C 302.0625 188.183594 285.445312 180.0625 267.515625 179.980469 L 207.789062 102.210938 C 201.316406 93.78125 191.097656 88.746094 180.464844 88.746094 L 38.980469 88.746094 L 39.351562 89.546875 C 46.011719 103.8125 60.496094 113.027344 76.246094 113.027344 L 184.78125 113.027344 L 253.929688 204.261719 L 314.691406 204.261719 " fill-opacity="1" fill-rule="nonzero"/></g><path fill="#00666c" d="M 199.777344 147.066406 L 181.140625 122.785156 L 67.089844 122.785156 L 67.464844 123.582031 C 74.125 137.847656 88.605469 147.066406 104.355469 147.066406 L 199.777344 147.066406 " fill-opacity="1" fill-rule="nonzero"/><path fill="#00666c" d="M 225.902344 181.101562 L 207.265625 156.820312 L 95.207031 156.820312 L 95.578125 157.621094 C 102.238281 171.886719 116.71875 181.101562 132.46875 181.101562 L 225.902344 181.101562 " fill-opacity="1" fill-rule="nonzero"/><g fill="#00666c" fill-opacity="1"><g transform="translate(97.987425, 299.893252)"><g><path d="M 51.53125 1.046875 C 42.6875 1.046875 34.890625 -0.789062 28.140625 -4.46875 C 21.390625 -8.144531 16.175781 -13.304688 12.5 -19.953125 C 8.832031 -26.609375 7 -34.253906 7 -42.890625 C 7 -55.296875 9.601562 -66.335938 14.8125 -76.015625 C 20.03125 -85.703125 27.328125 -93.222656 36.703125 -98.578125 C 46.085938 -103.941406 56.835938 -106.625 68.953125 -106.625 C 77.984375 -106.625 85.898438 -104.8125 92.703125 -101.1875 C 99.503906 -97.5625 104.738281 -92.445312 108.40625 -85.84375 C 112.082031 -79.25 113.921875 -71.632812 113.921875 -63 C 113.921875 -50.6875 111.289062 -39.664062 106.03125 -29.9375 C 100.769531 -20.207031 93.421875 -12.609375 83.984375 -7.140625 C 74.554688 -1.679688 63.738281 1.046875 51.53125 1.046875 Z M 56 -26.0625 C 61.851562 -26.0625 66.988281 -27.597656 71.40625 -30.671875 C 75.820312 -33.753906 79.195312 -37.851562 81.53125 -42.96875 C 83.863281 -48.082031 85.03125 -53.613281 85.03125 -59.5625 C 85.03125 -65.914062 83.316406 -70.851562 79.890625 -74.375 C 76.472656 -77.90625 71.585938 -79.671875 65.234375 -79.671875 C 59.367188 -79.671875 54.203125 -78.15625 49.734375 -75.125 C 45.265625 -72.101562 41.835938 -68.0625 39.453125 -63 C 37.078125 -57.9375 35.890625 -52.375 35.890625 -46.3125 C 35.890625 -40.0625 37.625 -35.125 41.09375 -31.5 C 44.570312 -27.875 49.539062 -26.0625 56 -26.0625 Z M 56 -26.0625 "/></g></g></g><g fill="#00666c" fill-opacity="1"><g transform="translate(215.188867, 299.893252)"><g><path d="M 51.53125 1.046875 C 42.6875 1.046875 34.890625 -0.789062 28.140625 -4.46875 C 21.390625 -8.144531 16.175781 -13.304688 12.5 -19.953125 C 8.832031 -26.609375 7 -34.253906 7 -42.890625 C 7 -55.296875 9.601562 -66.335938 14.8125 -76.015625 C 20.03125 -85.703125 27.328125 -93.222656 36.703125 -98.578125 C 46.085938 -103.941406 56.835938 -106.625 68.953125 -106.625 C 77.984375 -106.625 85.898438 -104.8125 92.703125 -101.1875 C 99.503906 -97.5625 104.738281 -92.445312 108.40625 -85.84375 C 112.082031 -79.25 113.921875 -71.632812 113.921875 -63 C 113.921875 -50.6875 111.289062 -39.664062 106.03125 -29.9375 C 100.769531 -20.207031 93.421875 -12.609375 83.984375 -7.140625 C 74.554688 -1.679688 63.738281 1.046875 51.53125 1.046875 Z M 56 -26.0625 C 61.851562 -26.0625 66.988281 -27.597656 71.40625 -30.671875 C 75.820312 -33.753906 79.195312 -37.851562 81.53125 -42.96875 C 83.863281 -48.082031 85.03125 -53.613281 85.03125 -59.5625 C 85.03125 -65.914062 83.316406 -70.851562 79.890625 -74.375 C 76.472656 -77.90625 71.585938 -79.671875 65.234375 -79.671875 C 59.367188 -79.671875 54.203125 -78.15625 49.734375 -75.125 C 45.265625 -72.101562 41.835938 -68.0625 39.453125 -63 C 37.078125 -57.9375 35.890625 -52.375 35.890625 -46.3125 C 35.890625 -40.0625 37.625 -35.125 41.09375 -31.5 C 44.570312 -27.875 49.539062 -26.0625 56 -26.0625 Z M 56 -26.0625 "/></g></g></g></svg>