<svg xmlns="http://www.w3.org/2000/svg" xmlns:xlink="http://www.w3.org/1999/xlink" zoomAndPan="magnify" preserveAspectRatio="xMidYMid meet" version="1.0" viewBox="38.56 120.25 299.5 116.72"><defs><g/><clipPath id="da0d355591"><path d="M 41.148438 120.253906 L 205.292969 120.253906 L 205.292969 189.253906 L 41.148438 189.253906 Z M 41.148438 120.253906 " clip-rule="nonzero"/></clipPath></defs><g clip-path="url(#da0d355591)"><path fill="#00666c" d="M 205.203125 189.257812 L 204.28125 188.082031 C 197.6875 179.65625 187.800781 174.804688 177.128906 174.753906 L 141.585938 128.292969 C 137.734375 123.257812 131.65625 120.25 125.328125 120.25 L 41.132812 120.25 L 41.351562 120.726562 C 45.316406 129.25 53.933594 134.757812 63.308594 134.757812 L 127.894531 134.757812 L 169.042969 189.257812 L 205.203125 189.257812 " fill-opacity="1" fill-rule="nonzero"/></g><path fill="#00666c" d="M 136.820312 155.089844 L 125.730469 140.585938 L 57.859375 140.585938 L 58.082031 141.0625 C 62.046875 149.582031 70.664062 155.089844 80.035156 155.089844 L 136.820312 155.089844 " fill-opacity="1" fill-rule="nonzero"/><path fill="#00666c" d="M 152.367188 175.425781 L 141.277344 160.917969 L 74.589844 160.917969 L 74.8125 161.394531 C 78.773438 169.917969 87.390625 175.425781 96.765625 175.425781 L 152.367188 175.425781 " fill-opacity="1" fill-rule="nonzero"/><g fill="#00666c" fill-opacity="1"><g transform="translate(32.454901, 236.422309)"><g><path d="M 22.265625 -54.5 L 27.671875 -15.234375 L 46.921875 -54.5 L 63.09375 -54.5 L 34.640625 0 L 15.3125 0 L 6.109375 -54.5 Z M 22.265625 -54.5 "/></g></g></g><g fill="#00666c" fill-opacity="1"><g transform="translate(90.204416, 236.422309)"><g><path d="M 26.75 0.546875 C 22.164062 0.546875 18.117188 -0.40625 14.609375 -2.3125 C 11.109375 -4.226562 8.40625 -6.910156 6.5 -10.359375 C 4.59375 -13.816406 3.640625 -17.785156 3.640625 -22.265625 C 3.640625 -28.710938 4.988281 -34.445312 7.6875 -39.46875 C 10.394531 -44.488281 14.179688 -48.390625 19.046875 -51.171875 C 23.921875 -53.960938 29.503906 -55.359375 35.796875 -55.359375 C 40.484375 -55.359375 44.59375 -54.414062 48.125 -52.53125 C 51.65625 -50.65625 54.375 -48 56.28125 -44.5625 C 58.1875 -41.132812 59.140625 -37.179688 59.140625 -32.703125 C 59.140625 -26.304688 57.773438 -20.582031 55.046875 -15.53125 C 52.316406 -10.488281 48.503906 -6.546875 43.609375 -3.703125 C 38.710938 -0.867188 33.09375 0.546875 26.75 0.546875 Z M 29.0625 -13.53125 C 32.101562 -13.53125 34.769531 -14.328125 37.0625 -15.921875 C 39.363281 -17.523438 41.117188 -19.648438 42.328125 -22.296875 C 43.535156 -24.953125 44.140625 -27.828125 44.140625 -30.921875 C 44.140625 -34.222656 43.25 -36.785156 41.46875 -38.609375 C 39.695312 -40.441406 37.160156 -41.359375 33.859375 -41.359375 C 30.816406 -41.359375 28.132812 -40.570312 25.8125 -39 C 23.5 -37.425781 21.722656 -35.328125 20.484375 -32.703125 C 19.242188 -30.078125 18.625 -27.191406 18.625 -24.046875 C 18.625 -20.796875 19.523438 -18.226562 21.328125 -16.34375 C 23.140625 -14.46875 25.71875 -13.53125 29.0625 -13.53125 Z M 29.0625 -13.53125 "/></g></g></g><g fill="#00666c" fill-opacity="1"><g transform="translate(151.046274, 236.422309)"><g><path d="M 26.75 0.546875 C 22.164062 0.546875 18.117188 -0.40625 14.609375 -2.3125 C 11.109375 -4.226562 8.40625 -6.910156 6.5 -10.359375 C 4.59375 -13.816406 3.640625 -17.785156 3.640625 -22.265625 C 3.640625 -28.710938 4.988281 -34.445312 7.6875 -39.46875 C 10.394531 -44.488281 14.179688 -48.390625 19.046875 -51.171875 C 23.921875 -53.960938 29.503906 -55.359375 35.796875 -55.359375 C 40.484375 -55.359375 44.59375 -54.414062 48.125 -52.53125 C 51.65625 -50.65625 54.375 -48 56.28125 -44.5625 C 58.1875 -41.132812 59.140625 -37.179688 59.140625 -32.703125 C 59.140625 -26.304688 57.773438 -20.582031 55.046875 -15.53125 C 52.316406 -10.488281 48.503906 -6.546875 43.609375 -3.703125 C 38.710938 -0.867188 33.09375 0.546875 26.75 0.546875 Z M 29.0625 -13.53125 C 32.101562 -13.53125 34.769531 -14.328125 37.0625 -15.921875 C 39.363281 -17.523438 41.117188 -19.648438 42.328125 -22.296875 C 43.535156 -24.953125 44.140625 -27.828125 44.140625 -30.921875 C 44.140625 -34.222656 43.25 -36.785156 41.46875 -38.609375 C 39.695312 -40.441406 37.160156 -41.359375 33.859375 -41.359375 C 30.816406 -41.359375 28.132812 -40.570312 25.8125 -39 C 23.5 -37.425781 21.722656 -35.328125 20.484375 -32.703125 C 19.242188 -30.078125 18.625 -27.191406 18.625 -24.046875 C 18.625 -20.796875 19.523438 -18.226562 21.328125 -16.34375 C 23.140625 -14.46875 25.71875 -13.53125 29.0625 -13.53125 Z M 29.0625 -13.53125 "/></g></g></g><g fill="#00666c" fill-opacity="1"><g transform="translate(211.888131, 236.422309)"><g><path d="M 73.671875 -54.5 L 64.015625 0 L 48.9375 0 L 54.265625 -30.15625 L 38.578125 0 L 25.90625 0 L 20.953125 -30.3125 L 15.609375 0 L 0.390625 0 L 10.046875 -54.5 L 28.375 -54.5 L 35.875 -19.171875 L 55.4375 -54.5 Z M 73.671875 -54.5 "/></g></g></g><g fill="#00666c" fill-opacity="1"><g transform="translate(284.171666, 236.422309)"><g><path d="M 36.484375 -8.890625 L 17.15625 -8.890625 L 12.671875 0 L -3.25 0 L 26.203125 -54.5 L 43.6875 -54.5 L 53.890625 0 L 37.890625 0 Z M 34.71875 -20.40625 L 32 -38.109375 L 23.046875 -20.40625 Z M 34.71875 -20.40625 "/></g></g></g></svg>